<?xml version="1.0" encoding="utf-8"?>
<!-- Svg Vector Icons : http://www.onlinewebfonts.com/icon -->
<!DOCTYPE svg PUBLIC "-//W3C//DTD SVG 1.1//EN" "http://www.w3.org/Graphics/SVG/1.1/DTD/svg11.dtd">
<svg version="1.1" xmlns="http://www.w3.org/2000/svg" xmlns:xlink="http://www.w3.org/1999/xlink" x="0px" y="0px" viewBox="0 0 1000 1000" enable-background="new 0 0 1000 1000" xml:space="preserve">
<metadata> Svg Vector Icons : http://www.onlinewebfonts.com/icon </metadata>
<g><g transform="translate(0.000000,511.000000) scale(0.100000,-0.100000)"><path d="M1096.9,4712.2c-474.4-63-866-425.2-964.5-895.6c-43.3-206.7-43.3-7213.7,0-7420.4c84.6-403.5,387.7-734.2,787.3-862.1l137.8-43.3h2716.2c2582.4,0,2722.1,2,2834.3,35.4c307,94.5,568.8,301.1,702.7,557c129.9,248,135.8,291.3,129.9,1112.1l-5.9,734.2l-149.6-196.8c-82.7-106.3-200.8-255.9-261.8-332.6l-110.2-137.8v-383.8c0-381.8,0-383.8-57.1-501.9c-66.9-145.7-200.8-269.7-342.5-318.9c-96.5-33.5-248-35.4-2749.7-35.4H1116.6l-110.2,51.2c-135.8,65-250,173.2-312.9,303.1l-49.2,98.4V106.4v3631.5l49.2,98.4c63,129.9,177.1,238.2,312.9,303.1l110.2,51.2h1850.2H4817l11.8-561c7.9-368.1,19.7-588.5,35.4-639.7c90.5-285.4,316.9-557,572.8-685c230.3-114.2,346.4-131.9,948.7-131.9h527.5l3.9-722.4l5.9-724.3l261.8,429.1l259.8,431.1V2055c0,257.8-5.9,484.2-11.8,501.9c-7.9,19.7-505.8,505.8-1108.1,1084.5c-840.4,809-1108.1,1057-1163.2,1070.7C5078.7,4735.8,1274.1,4733.8,1096.9,4712.2z"/><path d="M2124.4,3283.2c-7.9-7.9-13.8-63-13.8-120.1c0-59-7.9-124-19.7-143.7c-9.8-19.7-74.8-61-141.7-94.5c-226.4-106.3-330.7-253.9-346.4-486.2c-7.9-114.2,0-157.5,35.4-242.1c74.8-173.2,202.7-265.7,580.6-419.2c192.9-78.7,285.4-161.4,285.4-259.8c0-86.6-59-161.4-149.6-190.9c-114.2-37.4-350.3-15.7-507.8,49.2c-163.4,65-167.3,63-218.5-149.6c-27.6-106.3-29.5-141.7-9.8-165.3c31.5-37.4,204.7-100.4,324.8-118.1c155.5-23.6,167.3-33.5,167.3-163.4c0-161.4,11.8-171.2,179.1-169.3c94.5,2,145.6,11.8,157.5,29.5c9.8,15.7,17.7,86.6,17.7,157.5c0,141.7,9.8,155.5,112.2,190.9c165.3,55.1,324.8,218.5,379.9,385.8c37.4,112.2,29.5,291.3-17.7,395.6c-86.6,194.9-202.7,293.3-484.2,405.5c-224.4,88.6-295.2,127.9-342.5,187c-88.6,112.2-23.6,234.2,141.7,265.7c102.4,17.7,289.3-3.9,395.6-49.2c129.9-55.1,139.8-47.2,189,126c35.4,127.9,39.4,163.4,19.7,187c-25.6,31.5-251.9,108.3-322.8,108.3c-72.8,0-92.5,29.5-106.3,159.4l-13.8,126l-137.8,5.9C2201.1,3293.1,2132.2,3291.1,2124.4,3283.2z"/><path d="M8891.3,2789.2c-226.3-120.1-476.3-448.8-1047.1-1373.8C7129.7,258,6761.6-395.5,6314.8-1291c-435-871.9-673.1-1478.2-710.5-1804.9c-11.8-106.3-7.9-126,27.6-161.4c57.1-57.1,94.5-51.2,218.5,31.5c464.5,311,1584.5,1785.2,2523.3,3318.5c120,194.9,718.4,1192.8,858.2,1430.9c15.7,25.6,29.5,23.6,104.3-17.7c47.2-25.6,98.4-57.1,114.2-70.9c21.7-21.7-66.9-185-513.7-956.6c-297.2-513.7-555-960.5-574.7-995.9c-43.3-84.6-39.4-179.1,7.9-257.8c43.3-68.9,167.3-141.7,194.9-110.2c7.9,9.8,314.9,533.4,681,1165.2C9853.8,1332.7,9908.9,1433,9899,1498c-5.9,37.4-21.7,80.7-33.5,94.5c-11.8,15.7-116.1,80.7-232.3,149.6c-116.1,66.9-212.6,124-216.5,126c-3.9,3.9,19.7,80.7,51.2,171.2c110.2,309,102.4,444.8-35.4,594.4C9279,2799,9038.9,2867.9,8891.3,2789.2z"/><path d="M3411.6,1074.8c-78.7-41.3-139.7-143.7-139.7-230.3s61-189,139.7-230.3c63-33.5,145.7-35.4,1397.5-35.4h1330.6l66.9,45.3c149.6,98.4,169.3,271.6,47.2,403.5l-65,72.8l-1356.1,5.9C3549.4,1110.2,3474.6,1108.3,3411.6,1074.8z"/><path d="M1368.5-11.7c-183-110.2-155.5-377.9,47.2-464.5c53.1-23.6,458.6-27.6,2365.9-27.6c1582.5,0,2318.6,5.9,2358,21.7c84.6,31.5,141.7,94.5,165.3,181.1c27.6,108.3-19.7,232.3-108.3,289.3c-65,39.4-84.6,39.4-2415.1,39.4C1484.7,27.7,1429.6,25.7,1368.5-11.7z"/><path d="M1433.5-1054.8c-216.5-65-251.9-358.2-57.1-486.2c51.2-33.4,169.3-35.4,2182.8-41.3l2129.7-3.9l129.9,267.7c70.8,147.6,129.9,271.6,129.9,275.6C5948.7-1027.3,1488.6-1039.1,1433.5-1054.8z"/><path d="M1380.4-2157.1c-127.9-66.9-173.2-244.1-96.4-368.1c78.7-131.9-45.3-124,2068.7-120.1l1911.2,5.9l74.8,206.7c39.4,114.2,82.7,230.3,94.5,261.8l23.6,53.1H3452.9C1522.1-2119.7,1449.2-2121.7,1380.4-2157.1z"/></g></g>
</svg>